{"accessors":[{"bufferView":0,"componentType":5123,"count":103431,"max":[18037],"min":[0],"type":"SCALAR"},{"bufferView":1,"componentType":5126,"count":18038,"max":[365.0361633300781,131.7449188232422,456.90472412109375],"min":[-366.6778564453125,-132.5994110107422,-475.787109375],"type":"VEC3"},{"bufferView":2,"componentType":5126,"count":18038,"max":[0.999946117401123,0.9999792575836182,0.9996053576469421],"min":[-0.9999898076057434,-0.9999978542327881,-0.9998193383216858],"type":"VEC3"},{"bufferView":3,"componentType":5126,"count":18038,"max":[0.9999989867210388,0.9999718070030212,0.8967652916908264,1.0],"min":[-0.9999984502792358,-0.9999269247055054,-0.8406767845153809,1.0],"type":"VEC4"},{"bufferView":4,"componentType":5126,"count":18038,"max":[0.9876600503921509,0.970402467995882],"min":[0.013051804155111313,0.027591824531555176],"type":"VEC2"}],"asset":{"generator":"Verge3D for Blender","version":"2.0"},"bufferViews":[{"buffer":0,"byteLength":206862,"byteOffset":0,"target":34963},{"buffer":0,"byteLength":216456,"byteOffset":206864,"target":34962},{"buffer":0,"byteLength":216456,"byteOffset":423320,"target":34962},{"buffer":0,"byteLength":288608,"byteOffset":639776,"target":34962},{"buffer":0,"byteLength":144304,"byteOffset":928384,"target":34962}],"buffers":[{"byteLength":1072688,"uri":"BBALL_SS_SSHIRT_3D.bin"}],"cameras":[{"extensions":{"S8S_v3d_camera":{"controls":"ORBIT","enablePan":true,"moveSpeed":1.0,"orbitMaxDistance":100.0,"orbitMaxPolarAngle":3.1415927410125732,"orbitMaxZoom":100.0,"orbitMinDistance":0.0,"orbitMinPolarAngle":0.0,"orbitMinZoom":0.009999999776482582,"orbitTarget":[0.0,0.0,-0.0],"rotateSpeed":1.0,"viewportFitInitialAspect":1.7777777777777777,"viewportFitType":"AUTO"}},"name":"Camera","perspective":{"aspectRatio":1.7777777777777777,"yfov":0.39959652046304894,"zfar":100.0,"znear":0.10000000149011612},"type":"perspective"}],"extensions":{"S8S_v3d_lights":{"lights":[{"color":[1.0,1.0,1.0],"intensity":2.0,"name":"Sun","profile":"blender","shadow":{"bias":-0.0018,"cameraFar":100,"cameraFov":0,"cameraNear":0.1,"csm":{"maxDistance":200.0},"enabled":false,"expBias":2.5,"mapSize":1024,"radius":1.0,"slopeScaledBias":2.5},"type":"directional"},{"color":[1.0,1.0,1.0],"intensity":2.0,"name":"Sun.001","profile":"blender","shadow":{"bias":-0.0018,"cameraFar":100,"cameraFov":0,"cameraNear":0.1,"csm":{"maxDistance":200.0},"enabled":false,"expBias":2.5,"mapSize":1024,"radius":1.0,"slopeScaledBias":2.5},"type":"directional"}]}},"extensionsUsed":["S8S_v3d_texture","S8S_v3d_materials","S8S_v3d_camera","S8S_v3d_lights","S8S_v3d_mesh","S8S_v3d_node","S8S_v3d_scene"],"images":[{"uri":"texture.jpg"},{"uri":"SS-Hoodie_MAPS_occlusion@0.5x.png"},{"uri":"SS-Hoodie_MAPS_normal@0.5x.png"}],"materials":[{"doubleSided":true,"name":"TOP","normalTexture":{"index":2},"pbrMetallicRoughness":{"baseColorFactor":[0.800000011920929,0.800000011920929,0.800000011920929,1.0],"metallicFactor":0.0,"roughnessFactor":0.8650000095367432}},{"extensions":{"S8S_v3d_materials":{"gtaoVisible":true,"materialIndex":0,"nodeGraph":{"edges":[{"fromNode":2,"fromOutput":0,"toInput":0,"toNode":0},{"fromNode":1,"fromOutput":0,"toInput":0,"toNode":2}],"nodes":[{"inputs":[[0,0,0,0],[0,0,0,0]],"is_active_output":true,"name":"World Output","outputs":[],"type":"OUTPUT_WORLD_BL"},{"inputs":[0.5,1.0,1.0,1.0,[0.800000011920929,0.800000011920929,0.800000011920929,1.0]],"is_active_output":false,"name":"Hue Saturation Value","outputs":[[0.0,0.0,0.0,0.0]],"type":"HUE_SAT_BL"},{"inputs":[[0.05087608844041824,0.05087608844041824,0.05087608844041824,1.0],1.0],"is_active_output":false,"name":"Background","outputs":[[0,0,0,0]],"type":"BACKGROUND_BL"}]}}},"name":"Verge3D_Environment_World"}],"meshes":[{"extensions":{"S8S_v3d_mesh":{"colorLayers":{},"uvLayers":{}}},"name":"TOP","primitives":[{"attributes":{"NORMAL":2,"POSITION":1,"TANGENT":3,"TEXCOORD_0":4},"indices":0,"material":0,"mode":4}]}],"nodes":[{"camera":0,"extensions":{"S8S_v3d_node":{"frustumCulling":true,"groupNames":["Collection"],"hidden":false,"hidpiCompositing":false,"objectColor":[0.0,0.0,0.0,0.0],"objectIndex":0,"renderOrder":0}},"name":"Camera","rotation":[1.685874053691805e-07,0.0,0.0,1.0],"scale":[1.0,0.9999998807907104,0.9999998807907104],"translation":[0.0,0.0,11.199999809265137]},{"extensions":{"S8S_v3d_lights":{"light":1},"S8S_v3d_node":{"frustumCulling":true,"groupNames":["Collection"],"hidden":false,"hidpiCompositing":false,"objectColor":[1.0,1.0,1.0,1.0],"objectIndex":0,"renderOrder":0}},"name":"Sun2","rotation":[-0.2634977400302887,0.9332777261734009,0.18417254090309143,0.16013167798519135],"scale":[1.0000001192092896,1.0,0.9999998807907104],"translation":[1.1850881576538086,3.002347946166992,-8.101985931396484]},{"extensions":{"S8S_v3d_lights":{"light":0},"S8S_v3d_node":{"frustumCulling":true,"groupNames":["Collection"],"hidden":false,"hidpiCompositing":false,"objectColor":[1.0,1.0,1.0,1.0],"objectIndex":0,"renderOrder":0}},"name":"Sun1","rotation":[-0.23772913217544556,0.14008697867393494,0.9443364143371582,0.17913472652435303],"scale":[1.0000004768371582,1.000000238418579,1.0000001192092896],"translation":[-2.234933614730835,2.3097026348114014,9.13847541809082]},{"extensions":{"S8S_v3d_node":{"frustumCulling":true,"groupNames":["Collection"],"hidden":false,"hidpiCompositing":false,"objectColor":[1.0,1.0,1.0,1.0],"objectIndex":0,"renderOrder":0}},"mesh":0,"name":"TOP","rotation":[0.7071069478988647,0.0,-0.0,0.7071066498756409],"scale":[0.004286580719053745,0.004286580719053745,0.004286580719053745],"translation":[0.0,-0.020472094416618347,-0.0]}],"samplers":[{}],"scene":0,"scenes":[{"extensions":{"S8S_v3d_scene":{"aaMethod":"AUTO","iblEnvironmentMode":"PMREM","physicallyCorrectLights":true,"pmremMaxTileSize":512,"toneMapping":{"type":"filmicBlender"},"worldMaterial":1}},"extras":{"animFrameRate":24,"coordSystem":"Z_UP_RIGHT"},"name":"Scene","nodes":[0,2,1,3]}],"textures":[{"extensions":{"S8S_v3d_texture":{"colorSpace":"srgb"}},"name":"texture.jpg","sampler":0,"source":0},{"extensions":{"S8S_v3d_texture":{"colorSpace":"non-color"}},"name":"SS-Hoodie_MAPS_occlusion@0.5x.png","sampler":0,"source":1},{"extensions":{"S8S_v3d_texture":{"colorSpace":"non-color"}},"name":"SS-Hoodie_MAPS_normal@0.5x.png","sampler":0,"source":2}]}
